<svg width="28" height="29" viewBox="0 0 28 29" fill="none" xmlns="http://www.w3.org/2000/svg">
<g id="Group">
<path id="Vector" d="M14 7.8754L15.6701 13.4011H20.6805L16.6473 16.2794L18.2997 21.6274L14 18.3582L9.70029 21.6274L11.3527 16.2794L7.31946 13.4011H12.3299L14 7.8754ZM9.70029 9.84758H1.77603C0.0525868 9.84758 -0.658109 12.0685 0.745516 13.0635L7.21285 17.683L4.67211 25.8738C4.15686 27.5262 6.07574 28.8587 7.44383 27.8104L14 22.8356L20.5562 27.8282C21.9243 28.8765 23.8431 27.5439 23.3279 25.8916L20.7871 17.7008L27.2545 13.0813C28.6581 12.0685 27.9474 9.86535 26.224 9.86535H18.2997L15.6879 1.26593C15.1726 -0.421976 12.7918 -0.421976 12.2943 1.26593L9.70029 9.84758Z" fill="#E99D40"/>
</g>
</svg>
